<?xml version="1.0" encoding="utf-8" standalone="no"?>
<!DOCTYPE svg PUBLIC "-//W3C//DTD SVG 1.1//EN" "http://www.w3.org/Graphics/SVG/1.1/DTD/svg11-flat-20030114.dtd">
<!-- Created by SVGDeveloper 1.0 -->
<svg width="640" height="480" version="1.1" xmlns="http://www.w3.org/2000/svg" xmlns:xlink="http://www.w3.org/1999/xlink">
<defs>
<radialGradient id="radialGradient">
<stop offset="1" stop-color="black" stop-opacity="1" />
<stop offset="0" stop-color="rgb(0,255,0)" stop-opacity="1" />
</radialGradient>
<radialGradient id="radialGradient1">
<stop offset="0%" stop-color="rgb(255,0,0)" stop-opacity="1" />
<stop offset="50%" stop-color="rgb(0,255,0)" stop-opacity="1" />
<stop offset="100%" stop-color="rgb(0,0,255)" stop-opacity="1" />
</radialGradient>
<linearGradient id="linearGradient">
<stop offset="10%" stop-color="rgb(255,0,0)" stop-opacity="1" />
<stop offset="50%" stop-color="rgb(255,255,0)" stop-opacity="1" />
<stop offset="90%" stop-color="rgb(255,0,0)" stop-opacity="1" />
</linearGradient>
<radialGradient id="radialGradient2">
<stop offset="1" stop-color="black" stop-opacity="1" />
<stop offset="0" stop-color="rgb(0,255,0)" stop-opacity="1" />
</radialGradient>
<linearGradient id="linearGradient1">
<stop offset="10%" stop-color="rgb(255,0,0)" stop-opacity="1" />
<stop offset="50%" stop-color="rgb(255,255,0)" stop-opacity="1" />
<stop offset="90%" stop-color="rgb(255,0,0)" stop-opacity="1" />
</linearGradient>
</defs>
<path d="M342.235,274.75c16.542-11.613-9.099-22.903-52.929-15.806 c5.788-12.904-57.895-20.322-77.747-2.582c-4.134-10.322-81.873-8.064-72.774,5.806c-26.468-7.096-71.126,6.775-43.834,20.323 c-27.292,5.161-21.503,22.581,13.229,22.903c-5.785,7.741,14.891,18.063,59.549,11.29c0,5.482,35.563,20.967,65.337,0.967 c6.617,9.677,62.853,17.418,71.127-0.967c15.711,3.87,64.507,1.289,48.792-17.419 C367.046,297.331,391.858,277.008,342.235,274.75z" transform="matrix(0.006808511,0,0,0.02446483,253.4689,243.9816)" fill="url(#radialGradient1)" stroke="url(#radialGradient)" />
<path d="M379.563,119.041c5.16-5.054-20.368-15.162-34.677,0.12 c-7.993,3.729-22.818,13.476-25.653,16.364c-2.836,2.888-6.928,13.236-8.217,17.086c-1.291,3.851-13.149,14.68-15.472,17.566 c-1.631,2.03-12.071,12.12-7.221,12.875c3.096,0.482,28.783-21.037,30.94-22.62c3.488-2.559,10.317-10.396,19.382-12.441 c1.084,0.356,4.821,0.89,4.821,0.89s-1.885,1.032-2.577,1.444c-1.624,0.967-0.718,1.854,1.805,2.526 c0.534-1.702,1.29-3.008,4.901-3.609c3.501-0.584,6.827,0.893,6.7,2.889c2.397-1.088,3.866-4.934-4.896-4.573 c-0.912-0.242-3.226-0.974-4.073-1.197c8.393-2.642,17.441-7.569,20.571-11.075c3.783-4.236,0.91-9.274,2.711-10.958 c1.742,0.31,4.515,0.639,6.72,0.134c0.549,0.478,0.832,1.114,0.622,1.919C382.183,124.474,381.792,121.752,379.563,119.041z" transform="matrix(2.208,0,0,1.861,-354.248,-125.816)" fill="#FF9999" stroke="#000000" />
<path d="M329.624,215.121c-2.527-18.239-21.055-5.7-37.898,6.841 c-16.845,12.541-28.073,50.163-28.073,50.163s-1.942,0.824-0.701-2.851c1.098-3.252,0.412-4.899-0.475-5.723l7.759-24.406 c0.318-0.336,0.717-1.135,1.038-2.148c0.463-1.455,0.589-2.781,0.28-2.96c-0.309-0.18-0.934,0.854-1.396,2.31c-0.323,1.015-0.478,1.954-0.438,2.5l-7.736,24.335c-0.782-0.471-1.502-0.429-1.139-0.368c0.358,0.062-0.335,0.04-1.105,0.474 l-7.769-24.44c0.038-0.546-0.115-1.485-0.438-2.5c-0.462-1.455-1.087-2.489-1.396-2.31c-0.31,0.179-0.185,1.505,0.278,2.96 c0.323,1.014,0.723,1.813,1.04,2.148l7.785,24.49c-0.898,0.775-1.609,2.355-0.5,5.639c1.24,3.675-0.703,2.851-0.703,2.851 s-11.229-37.622-28.072-50.163s-35.372-25.08-37.898-6.841c-2.527,18.241,2.245,18.241,3.648,26.223 c1.404,7.981,2.808,30.021,7.581,35.341c4.772,5.32,24.143,5.7,24.143,5.7s-21.617,15.96-21.335,25.461 c0.28,9.501,6.176,62.323,18.247,63.083c12.071,0.761,19.932-23.941,23.301-35.721c3.368-11.781,7.579-35.722,9.264-36.481 c1.684-0.761,0.28,15.58,1.404,19.38c1.122,3.801,2.525,3.326,2.525,3.326s1.403,0.475,2.527-3.326 c1.122-3.8-0.281-20.141,1.404-19.38c1.683,0.76,5.894,24.7,9.263,36.481c3.369,11.779,11.229,36.481,23.301,35.721 c12.071-0.76,17.967-53.582,18.247-63.083c0.281-9.501-21.335-25.461-21.335-25.461s19.37-0.38,24.143-5.7 c4.772-5.319,6.176-27.359,7.58-35.341C327.378,233.362,332.15,233.362,329.624,215.121z" transform="matrix(1.203,0,0,0.685,-147.283,-50.079)" fill="url(#linearGradient1)" stroke="#000000" />
</svg>